<svg width="11" height="11" viewBox="0 0 11 11" fill="#000000" xmlns="http://www.w3.org/2000/svg">
<g clip-path="url(#clip0_319_232)">
<path d="M8.79658 10.0036C8.60741 10.0041 8.42302 9.96562 8.2434 9.88802C8.06378 9.81043 7.93147 9.73595 7.84646 9.66458C7.76144 9.59322 7.66006 9.49912 7.5423 9.38227C7.12604 9.80017 6.50044 10.0104 5.66548 10.0128L0.968825 10.0267C0.884024 10.0269 0.810548 9.99621 0.748396 9.93454C0.686244 9.87288 0.655043 9.79973 0.654793 9.71509C0.654543 9.63045 0.685312 9.55712 0.7471 9.49509C0.808887 9.43306 0.882181 9.40192 0.966982 9.40167C1.04526 9.40144 1.138 9.32792 1.2452 9.18112C1.3524 9.03432 1.45459 8.84847 1.55177 8.62357C1.64896 8.39868 1.73134 8.12988 1.79891 7.81718C1.86648 7.50448 1.89982 7.19839 1.89894 6.89891C1.89844 6.72964 1.87682 6.58647 1.83407 6.46941C1.79132 6.35235 1.73884 6.25159 1.67662 6.16714C1.6144 6.08269 1.55216 5.9901 1.48989 5.88937C1.42763 5.78864 1.375 5.63906 1.33201 5.44061C1.28903 5.24217 1.26711 4.99972 1.26627 4.71327C1.26577 4.544 1.28656 4.40559 1.32864 4.29804C1.37073 4.19049 1.42267 4.10896 1.48448 4.05344C1.54628 3.99792 1.60809 3.94077 1.66988 3.88199C1.73168 3.82322 1.7836 3.73355 1.82565 3.61298C1.86769 3.49241 1.88844 3.33773 1.88788 3.14893C1.88665 2.73226 1.67729 2.52454 1.25981 2.52577C0.966274 2.52664 0.683817 2.41517 0.412445 2.19136C0.141072 1.96755 0.00512697 1.76775 0.00460851 1.59197C0.00416686 1.44223 0.0738729 1.30043 0.213726 1.16655C0.35358 1.03267 0.492 0.965533 0.628985 0.965129C0.739879 0.964802 0.842522 0.931947 0.936915 0.866564C1.03131 0.801181 1.12077 0.722792 1.2053 0.631396C1.28983 0.540001 1.38252 0.448581 1.48336 0.357138C1.5842 0.265694 1.72096 0.187165 1.89363 0.121551C2.0663 0.0559377 2.27005 0.0227846 2.50488 0.0220919C2.81147 0.0211877 3.06108 0.0562589 3.25373 0.127306C3.44637 0.198352 3.59015 0.290702 3.68507 0.404355C3.78 0.518008 3.85711 0.677286 3.91643 0.88219C3.97574 1.08709 4.01711 1.29042 4.04054 1.49218C4.06396 1.69393 4.10549 1.95097 4.16512 2.2633C4.22475 2.57562 4.30063 2.86837 4.39276 3.14154C4.51779 3.51226 4.8111 3.98503 5.27268 4.55985C5.73426 5.13466 6.06963 5.49337 6.27879 5.63599C7.11539 6.18691 7.53533 7.019 7.53861 8.13228C7.53955 8.45129 7.72631 8.73883 8.09889 8.99489C8.47146 9.25095 8.91215 9.37823 9.42096 9.37673C9.59056 9.37623 9.78942 9.34309 10.0175 9.27732C9.9595 9.50535 9.81651 9.68319 9.58858 9.81081C9.36064 9.93844 9.09664 10.0027 8.79658 10.0036ZM3.15138 6.89521C3.13212 6.99944 3.10642 7.13461 3.0743 7.30072C3.04217 7.46683 2.97279 7.71931 2.86616 8.05817C2.75953 8.39703 2.6477 8.63499 2.53069 8.77205L3.78313 8.76836C3.7823 8.48841 3.74897 8.246 3.68314 8.04111C3.6173 7.83623 3.54511 7.68833 3.46656 7.59741C3.38802 7.5065 3.31595 7.40092 3.25036 7.28067C3.18478 7.16042 3.15178 7.03193 3.15138 6.89521Z" fill="#818AF9"/>
</g>
<defs>
<clipPath id="clip0_319_232">
<rect width="9.99022" height="10" fill="white" transform="translate(0 0.02948) rotate(-0.168991)"/>
</clipPath>
</defs>
</svg>
